<svg width="200" height="200" viewBox="0 0 200 200" fill="none" xmlns="http://www.w3.org/2000/svg">
<rect width="200" height="200" rx="50" fill="#252632"/>
<path d="M31.6086 138.35C28.9586 138.35 27.0086 137.675 25.7586 136.325C24.5586 135.025 23.9586 133.375 23.9586 131.375V127.25C23.9586 125.95 24.0836 124.8 24.3336 123.8C24.5836 122.8 24.9086 121.925 25.3086 121.175C25.7586 120.375 26.2336 119.675 26.7336 119.075C27.2336 118.475 27.7086 117.9 28.1586 117.35C29.0086 116.35 29.5836 115.5 29.8836 114.8C30.2336 114.05 30.4086 113.275 30.4086 112.475C30.4086 109.225 27.2836 107.6 21.0336 107.6H14.8086V101.75H21.0336C27.2836 101.75 30.4086 100.125 30.4086 96.875C30.4086 96.075 30.2336 95.325 29.8836 94.625C29.5836 93.875 29.0086 93 28.1586 92C27.7086 91.45 27.2336 90.875 26.7336 90.275C26.2336 89.625 25.7836 88.925 25.3836 88.175C24.9836 87.425 24.6336 86.55 24.3336 85.55C24.0836 84.55 23.9586 83.4 23.9586 82.1V77.975C23.9586 75.975 24.5586 74.325 25.7586 73.025C27.0086 71.675 28.9586 71 31.6086 71H44.8086V76.85H30.7086V81.65C30.7086 82.65 30.7836 83.525 30.9336 84.275C31.0836 84.975 31.2836 85.625 31.5336 86.225C31.8336 86.825 32.1586 87.375 32.5086 87.875C32.9086 88.375 33.3086 88.875 33.7086 89.375C34.5586 90.425 35.3586 91.55 36.1086 92.75C36.8586 93.95 37.2336 95.35 37.2336 96.95C37.2336 99.05 36.4836 100.75 34.9836 102.05C33.5336 103.3 31.4586 104.1 28.7586 104.45V104.9C31.4586 105.25 33.5336 106.075 34.9836 107.375C36.4836 108.625 37.2336 110.3 37.2336 112.4C37.2336 114 36.8586 115.4 36.1086 116.6C35.3586 117.8 34.5586 118.925 33.7086 119.975C33.3086 120.475 32.9086 120.975 32.5086 121.475C32.1586 121.975 31.8336 122.525 31.5336 123.125C31.2836 123.725 31.0836 124.4 30.9336 125.15C30.7836 125.85 30.7086 126.7 30.7086 127.7V132.5H44.8086V138.35H31.6086ZM84.9793 104.975H67.5793V128H59.1793V75.65H67.5793V97.925H84.9793V75.65H93.3793V128H84.9793V104.975ZM122.3 128.9C117.75 128.9 113.925 128.1 110.825 126.5C107.725 124.9 105.175 122.775 103.175 120.125L108.575 114.95C110.575 117.35 112.7 119.125 114.95 120.275C117.2 121.375 119.75 121.925 122.6 121.925C125.9 121.925 128.425 121.175 130.175 119.675C131.975 118.175 132.875 116.025 132.875 113.225C132.875 110.975 132.225 109.25 130.925 108.05C129.625 106.8 127.4 105.9 124.25 105.35L118.55 104.45C116.05 104.05 113.95 103.4 112.25 102.5C110.55 101.55 109.175 100.45 108.125 99.2C107.075 97.9 106.3 96.475 105.8 94.925C105.35 93.325 105.125 91.65 105.125 89.9C105.125 84.95 106.725 81.2 109.925 78.65C113.125 76.05 117.525 74.75 123.125 74.75C127.275 74.75 130.8 75.425 133.7 76.775C136.65 78.075 139.025 79.925 140.825 82.325L135.575 87.575C134.125 85.825 132.4 84.425 130.4 83.375C128.45 82.275 126.025 81.725 123.125 81.725C120.025 81.725 117.65 82.4 116 83.75C114.4 85.05 113.6 86.975 113.6 89.525C113.6 91.675 114.225 93.375 115.475 94.625C116.775 95.825 119.05 96.7 122.3 97.25L127.85 98.225C132.55 99.075 135.975 100.8 138.125 103.4C140.275 105.95 141.35 109.075 141.35 112.775C141.35 115.175 140.925 117.375 140.075 119.375C139.275 121.375 138.05 123.075 136.4 124.475C134.8 125.875 132.8 126.975 130.4 127.775C128.05 128.525 125.35 128.9 122.3 128.9ZM167.421 71C170.071 71 171.996 71.675 173.196 73.025C174.446 74.325 175.071 75.975 175.071 77.975V82.1C175.071 83.4 174.921 84.55 174.621 85.55C174.371 86.55 174.046 87.425 173.646 88.175C173.246 88.925 172.796 89.625 172.296 90.275C171.796 90.875 171.321 91.45 170.871 92C170.021 93 169.421 93.875 169.071 94.625C168.771 95.325 168.621 96.075 168.621 96.875C168.621 100.125 171.746 101.75 177.996 101.75H184.221V107.6H177.996C171.746 107.6 168.621 109.225 168.621 112.475C168.621 113.275 168.771 114.05 169.071 114.8C169.421 115.5 170.021 116.35 170.871 117.35C171.321 117.95 171.796 118.55 172.296 119.15C172.796 119.75 173.246 120.45 173.646 121.25C174.096 122 174.446 122.875 174.696 123.875C174.946 124.825 175.071 125.95 175.071 127.25V131.375C175.071 133.375 174.446 135.025 173.196 136.325C171.996 137.675 170.071 138.35 167.421 138.35H154.221V132.5H168.321V127.7C168.321 125.7 168.021 124.175 167.421 123.125C166.821 122.025 166.121 120.975 165.321 119.975C164.471 118.925 163.671 117.8 162.921 116.6C162.171 115.4 161.796 114 161.796 112.4C161.796 110.3 162.521 108.625 163.971 107.375C165.471 106.075 167.571 105.25 170.271 104.9V104.45C167.571 104.1 165.471 103.3 163.971 102.05C162.521 100.75 161.796 99.05 161.796 96.95C161.796 95.35 162.171 93.95 162.921 92.75C163.671 91.55 164.471 90.425 165.321 89.375C166.121 88.375 166.821 87.35 167.421 86.3C168.021 85.2 168.321 83.65 168.321 81.65V76.85H154.221V71H167.421Z" fill="#F18805"/>
</svg>
